<svg id="Capa_1" enable-background="new 0 0 512 512" height="512" viewBox="0 0 512 512" width="512" xmlns="http://www.w3.org/2000/svg"><g><path d="m38.958 277v235h45.042l26-235z" fill="#d9e5ff"/><path d="m473.042 277h-72.042l27 235h45.042z" fill="#ccd4ff"/><path d="m84 180h-22.5c-33.911 0-61.5 27.589-61.5 61.5s27.589 61.5 61.5 61.5h27.5z" fill="#7c7c96"/><path d="m450.5 180h-22.5l-17 123h39.5c33.911 0 61.5-27.589 61.5-61.5s-27.589-61.5-61.5-61.5z" fill="#6e6e86"/><path d="m203.891 0c-35.229 0-63.891 28.662-63.891 63.892v146.108h116l12-103-12-107z" fill="#d9e5ff"/><path d="m372 63.892c0-35.23-28.662-63.892-63.891-63.892h-52.109v210h116z" fill="#ccd4ff"/><path d="m84 180v332h172l18-160-18-172z" fill="#e5f3ff"/><path d="m256 180h172v332h-172z" fill="#d9e5ff"/><path d="m314 275h30v143.993h-30z" fill="#ff9368"/><path d="m210.57 60h30v30h-30z" fill="#ffb54c"/><path d="m270.43 60.048h30v30h-30z" fill="#ff9368"/><path d="m153.653 419 10.646-27.953h49.085l10.55 27.953h32.065l-53.727-142.365-26.51.027-54.211 142.338zm35.302-92.688 13.109 34.735h-26.338z" fill="#ffb54c"/><path d="m210.57 120.048v30h45.43l11-14.048-11-15.952z" fill="#7c7c96"/><path d="m256 120.048h45.43v30h-45.43z" fill="#6e6e86"/></g></svg>