<?xml version="1.0" encoding="utf-8"?>
<!-- Generator: Adobe Illustrator 14.0.0, SVG Export Plug-In . SVG Version: 6.00 Build 43363)  -->
<!DOCTYPE svg PUBLIC "-//W3C//DTD SVG 1.1//EN" "http://www.w3.org/Graphics/SVG/1.1/DTD/svg11.dtd">
<svg version="1.1" xmlns="http://www.w3.org/2000/svg" xmlns:xlink="http://www.w3.org/1999/xlink" x="0px" y="0px"
	 width="1133.86px" height="528px" viewBox="0 0 1133.86 528" enable-background="new 0 0 1133.86 528" xml:space="preserve">
<g id="Calque_1">
	<g>
		<path fill-rule="evenodd" clip-rule="evenodd" fill="#B6B3B1" d="M263.999,18.875c55.001-1.667,117-1.667,172,0
			C378.665,18.875,321.332,18.875,263.999,18.875z"/>
		<path fill-rule="evenodd" clip-rule="evenodd" fill="#F2F1F3" d="M533.998,18.875c27.314-2.296,67.677-0.356,98-1
			c0,0.333,0,0.667,0,1C599.33,18.875,566.665,18.875,533.998,18.875z"/>
		<path fill-rule="evenodd" clip-rule="evenodd" fill="#B6B3B1" d="M631.998,18.875c0-0.333,0-0.667,0-1
			c41.334,0.666,85.332-1.333,124.998,1C715.33,18.875,673.664,18.875,631.998,18.875z"/>
		<path fill-rule="evenodd" clip-rule="evenodd" fill="#F2F1F3" d="M913.996,18.875c-2.43-1.853,6.592-0.675,9-1
			c0,0.333,0,0.667,0,1C919.996,18.875,916.996,18.875,913.996,18.875z"/>
		<path fill-rule="evenodd" clip-rule="evenodd" fill="#B6B3B1" d="M922.996,18.875c0-0.333,0-0.667,0-1
			c66.333,0,132.666,0,198.999,0c0,0.333,0,0.667,0,1C1055.662,18.875,989.329,18.875,922.996,18.875z"/>
		<path fill-rule="evenodd" clip-rule="evenodd" fill="#E1221D" d="M424.998,71.874c-14.573,3.094-22.044,13.289-34,19
			c-18.941,15.059-35.278,32.721-52,50c-10.661,6.338-17.853,16.146-26,25c-1.48,0.52-2.521,1.48-4,2
			c-6.788,16.545-21.079,25.587-30,40c-0.333,0-0.666,0-1,0c-14.357,1.051-27.252-7.191-39-12c-1.086-0.248-0.679-1.989-2-2
			c2.275-34.089,24.009-57.301,41-80c0.61-0.057,1.184-0.15,1-1c19.846-22.117,49.854-55.104,82-69c8.383-3.624,21.519-6.458,30-5
			C402.169,40.794,421.945,58.578,424.998,71.874z"/>
		<path fill-rule="evenodd" clip-rule="evenodd" fill="#B6B3B1" d="M595.998,63.874c16.003-1.666,38.996-1.666,54.999,0
			C632.664,63.874,614.33,63.874,595.998,63.874z"/>
		<path fill-rule="evenodd" clip-rule="evenodd" fill="#B6B3B1" d="M148,84.874c4.688-1.664,16.311-1.664,21,0
			C162,84.874,155,84.874,148,84.874z"/>
		<path fill-rule="evenodd" clip-rule="evenodd" fill="#231F20" d="M169,84.874c16.457,0.876,26.204,8.462,37,15
			c13.6,0.933,22.907-2.427,33-5c0,20.333,0,40.667,0,61c-4.266-7.4-9.623-13.71-16-19c-11.702-6.205-29.405-10.031-52-14
			c-17.884-3.141-45.972-4.293-48-18c-2.201-14.879,11.849-18.152,25-20"/>
		<path fill-rule="evenodd" clip-rule="evenodd" fill="#B6B3B1" d="M584.997,91.874c0,34.333,0,68.666,0,103
			C583.331,162.873,583.331,123.875,584.997,91.874z"/>
		<path fill-rule="evenodd" clip-rule="evenodd" fill="#231F20" d="M584.997,91.874c28.721,1.281,64.661-4.66,81,9
			c20.327,19.684,17.843,76.312-7,89c-18.6,7.733-48.453,4.213-74,5C584.997,160.54,584.997,126.207,584.997,91.874z"/>
		<path fill-rule="evenodd" clip-rule="evenodd" fill="#F2F1F3" d="M34,118.874c-1.754-3.794-1.541-19.5,0-20
			C34,105.541,34,112.207,34,118.874z"/>
		<path fill-rule="evenodd" clip-rule="evenodd" fill="#B6B3B1" d="M85,99.874c0,4,0,8,0,12
			C83.341,110.149,83.341,101.599,85,99.874z"/>
		<path fill-rule="evenodd" clip-rule="evenodd" fill="#B6B3B1" d="M922.996,100.874c1.664,5.684,1.664,18.316,0,24
			C922.996,116.874,922.996,108.874,922.996,100.874z"/>
		<path fill-rule="evenodd" clip-rule="evenodd" fill="#B6B3B1" d="M962.996,127.874c34.667,0.667,71.999-1.333,104.999,1
			C1033.328,128.208,995.997,130.207,962.996,127.874z"/>
		<path fill-rule="evenodd" clip-rule="evenodd" fill="#B6B3B1" d="M962.996,156.874c33.001-2.333,70.332-0.334,104.999-1
			C1034.995,158.207,997.663,156.208,962.996,156.874z"/>
		<path fill-rule="evenodd" clip-rule="evenodd" fill="#B6B3B1" d="M277.999,207.874c0.334,0,0.667,0,1,0
			c-0.647,4.686,1.308,11.974-1,15C277.999,217.874,277.999,212.874,277.999,207.874z"/>
		<path fill-rule="evenodd" clip-rule="evenodd" fill="#E1221D" d="M412.999,216.874c6.393,4.28,8.283,21.712,10,34
			c5.746-6.164,13.288-15.746,8-27c0.19-0.81,1.003-0.997,1-2c0.89,0.443,1.789,0.878,2,2c-2.876,6.563,6.281,9.704,8,15
			c-5.931,8.783,3.627,31.149-12,32c4.542,6.458,7.9,14.1,12,21c-2.729-0.729-2.013,1.987-4,2c2.802,6.155,12.039,13.272,6,22
			c9.769,5.898,21.43,9.904,31,16c0.479,3.146-1.424,3.909-2,6c-10.872-6.547-22.417-7.486-37-9c-1.486,0.847-1.447,3.219-2,5
			c9.786,8.949,21.855-1.562,34,6c1.042,2.833,1.042,4.167,0,7c-4.915-0.489-13.054-2.871-15,2c-6.604-5.395-22.547-1.453-32-4
			c-7.585-7.67-2.522-17.893-2-30c-3.025-8.308-12.029-10.639-14-20c-10.796-3.204-16.976-11.023-25-17c1.081-6.748-1.76-9.573-3-14
			c3.735,4.598,7.742,8.925,13,12c-3.613-9.122-14.957-15.618-16-24c6.213,0.121,7.733,4.935,11,8c-0.247,1.086-1.988,0.679-2,2
			c5.056,5.747,10.643,20.043,18,17c-3.724-5.874-9.729-6.332-9-14c0.807-8.488,12.1-12.149,19-5c0,2.667,0,5.333,0,8
			c4.324,1.339,8.565-5.204,11-9c-1.007-13.993-6.62-23.38-9-36C414.916,222.762,411.824,219.525,412.999,216.874z M426.999,260.873
			c3.976-0.049,8.875-13.098,6-20C431.227,246.576,422.672,255.689,426.999,260.873z"/>
		<path fill-rule="evenodd" clip-rule="evenodd" fill="#B6B3B1" d="M153.999,224.874c3.667,0,7.334,0,11,0
			C162.691,224.592,156.361,224.881,153.999,224.874z"/>
		<path fill-rule="evenodd" clip-rule="evenodd" fill="#B6B3B1" d="M318.999,276.874c0-15.667,0-31.333,0-47
			c8.246,1.086,16.31,2.356,23,5c6.747,4.253,12.208,9.791,17.999,15c7.645,12.325,14.697,31.018,16,52
			c2.185,35.18-6.242,78.566,10,99c24.281,30.547,105.78,27.364,120-8c1.613-4.013,2.56-9.736,3-14
			c6.278-60.812-15.658-146.691,57-148c0,9,0,18,0,27c3.755-3.255,9.743-12.916,15.999-17c22.7-13.512,61.003-11,99-11
			c35.27,0,75.031,0.218,92,18c23.29,24.406,15.498,83.807-24.001,87c24.756,7.578,44.671,19.996,48,49
			c26.63-50.036,49.483-103.851,76-154c20.334,0,40.667,0,61,0c28.546,57.788,55.388,117.278,85,173.999c0-58,0-115.999,0-173.999
			c18.999,0,38,0,56.999,0c0,76.666,0,153.333,0,229.999c-34.223-2.216-70.968,5.409-92.999-8
			c-12.605-7.671-14.842-20.182-21-34.999c-39.333,0-78.666,0-118,0c-7.726,33.697-32.573,46.996-80,42.999
			c-5.092-1.983,3.363-6.232,3-9.999c-48.106,20.007-139.466,5.646-206.999,9.999c0-16,0-31.999,0-48
			c-29.276,76.019-214.559,75.803-235.999-7c-18.677,30.776-46.392,50.282-93,53.999c-44.091,3.518-96.582-0.547-145,1
			c1.689-66.311-3.569-139.567,3-200.999c3.425-5.241,6.049-11.284,10-16c24.625-19.321,86.715-14.125,131-12
			C272.469,232.911,301.285,250.832,318.999,276.874z M616.998,320.873c34.49-1.841,76.828,4.162,104.999-4
			c9.956-5.719,12.511-30.34,4-40c-24.528-13.804-72.582-4.084-108-7C615.667,284.875,617.662,304.205,616.998,320.873z
			 M144,273.873c0,48.334,0,96.667,0,144.999c36.252-3.38,73.192,6.155,100-3.999c43.436-16.454,47.101-99.009,16-131
			c-23.073-19.593-74.157-11.176-115-13C143.834,271.042,143.914,272.454,144,273.873z M861.997,375.873c26.665,0,53.332,0,79.999,0
			c-12.465-31.535-28.347-59.653-40-92C891.281,317.157,875.004,344.88,861.997,375.873z M616.998,363.873c0,18.667,0,37.333,0,56
			c38.29-3.043,89.993,7.326,115.999-8c10.448-10.708,10.183-38.489-2-47c-30.474-8.527-76.089-1.911-113-4
			C616.832,361.041,616.911,362.454,616.998,363.873z"/>
		<path fill-rule="evenodd" clip-rule="evenodd" fill="#231F20" d="M432.999,240.874c2.875,6.902-2.024,19.95-6,20
			C422.672,255.689,431.227,246.576,432.999,240.874z"/>
		<path fill-rule="evenodd" clip-rule="evenodd" fill="#F2F1F3" d="M36,505.872c-2.333-37.667-0.334-79.666-1-118.999
			c0.639-38.297-1.293-85.244,1-118C36,347.874,36,426.873,36,505.872z"/>
		<path fill-rule="evenodd" clip-rule="evenodd" fill="#231F20" d="M617.997,269.873c35.418,2.917,83.472-6.804,108,7
			c8.511,9.66,5.956,34.281-4,40c-28.171,8.162-70.509,2.159-104.999,4C617.662,304.205,615.667,284.875,617.997,269.873z"/>
		<path fill-rule="evenodd" clip-rule="evenodd" fill="#231F20" d="M144.999,270.874c40.843,1.824,91.927-6.594,115,13
			c31.101,31.991,27.436,114.546-16,131c-26.808,10.154-63.748,0.619-100,3.999c0-48.333,0-96.665,0-144.999
			C143.914,272.454,143.834,271.042,144.999,270.874z"/>
		<path fill-rule="evenodd" clip-rule="evenodd" fill="#231F20" d="M901.996,283.873c11.653,32.346,27.535,60.465,40,92
			c-26.667,0-53.334,0-79.999,0C875.004,344.88,891.281,317.157,901.996,283.873z"/>
		<path fill-rule="evenodd" clip-rule="evenodd" fill="#231F20" d="M617.997,360.873c36.911,2.089,82.526-4.527,113,4
			c12.183,8.51,12.448,36.292,2,47c-26.006,15.327-77.709,4.958-115.999,8c0-18.667,0-37.333,0-56
			C616.911,362.454,616.832,361.041,617.997,360.873z"/>
		<path fill-rule="evenodd" clip-rule="evenodd" fill="#B6B3B1" d="M36,505.872c58.666,0,117.333,0,176,0c0,0.333,0,0.667,0,1
			C153.666,506.205,92.667,508.205,36,505.872z"/>
		<path fill-rule="evenodd" clip-rule="evenodd" fill="#F2F1F3" d="M212,506.872c0-0.333,0-0.667,0-1c5.333,0,10.667,0,16,0
			C228.42,507.997,216.512,506.357,212,506.872z"/>
		<path fill-rule="evenodd" clip-rule="evenodd" fill="#B6B3B1" d="M519.998,506.872c86.666-2.333,177.666-0.333,265.999-1
			c0,0.333,0,0.667,0,1C697.332,506.872,608.664,506.872,519.998,506.872z"/>
		<path fill-rule="evenodd" clip-rule="evenodd" fill="#F2F1F3" d="M785.997,506.872c0-0.333,0-0.667,0-1c3.333,0,6.666,0,10,0
			C798.17,507.789,788.685,506.503,785.997,506.872z"/>
		<path fill-rule="evenodd" clip-rule="evenodd" fill="#B6B3B1" d="M1121.995,506.872c-40.666-0.666-83.999,1.333-122.999-1
			c40.999,0,81.999,0,122.999,0C1121.995,506.205,1121.995,506.539,1121.995,506.872z"/>
		<path fill-rule="evenodd" clip-rule="evenodd" fill="#F2F1F3" d="M423.999,514.872c0.057-0.61,0.149-1.184,1-0.999
			c8.667,0,17.333,0,26,0c0.61,0.057,1.184,0.149,1,0.999C442.665,514.872,433.332,514.872,423.999,514.872z"/>
		<path fill-rule="evenodd" clip-rule="evenodd" fill="#F2F1F3" d="M53,51.875c3.9-6.101,8.648-11.353,15-15
			C62.593,41.468,58.038,46.913,53,51.875z"/>
		<path fill-rule="evenodd" clip-rule="evenodd" fill="#F2F1F3" d="M821.997,37.875c6.04,3.292,10.27,8.396,13.999,14
			C831.144,47.395,826.866,42.338,821.997,37.875z"/>
		<path fill-rule="evenodd" clip-rule="evenodd" fill="#F2F1F3" d="M850.996,50.874c3.467-5.866,8.135-10.533,14.001-14
			C860.244,41.455,855.577,46.121,850.996,50.874z"/>
		<path fill-rule="evenodd" clip-rule="evenodd" fill="#B6B3B1" d="M946.996,484.872c-4.418-3.581-8.418-7.582-12-11.999
			C939.414,476.454,943.415,480.454,946.996,484.872z"/>
		<path fill-rule="evenodd" clip-rule="evenodd" fill="#B6B3B1" d="M854.997,483.873c2.913-3.752,6.247-7.086,10-10.001
			C862.082,477.624,858.748,480.958,854.997,483.873z"/>
		<path fill-rule="evenodd" clip-rule="evenodd" fill="#F2F1F3" d="M277.999,113.874c-16.991,22.699-38.724,45.911-41,80
			c-12.73,21.603-37.347,31.319-72,31c-3.667,0-7.333,0-11,0c-42.256,0.257-66.771-17.229-82-44c8.809-2.436,21.796-8.998,34-6
			c6.775,1.665,11.567,8.868,19,13c19.695,10.948,73.031,16.335,77-15c-6.91-17.663-30.916-15.096-49-18
			c-30.199-4.849-64.319-10.947-68-43c0-4,0-8,0-12c7.227-62.253,131.274-52.88,155-12c3.007-14.66,12.305-23.028,29-24
			c2.714,0.619,7.937-1.269,9,1 M148,84.874c-13.151,1.848-27.201,5.121-25,20c2.028,13.706,30.116,14.859,48,18
			c22.594,3.969,40.297,7.795,52,14c6.377,5.29,11.734,11.6,16,19c0-20.333,0-40.666,0-61c-10.093,2.573-19.4,5.933-33,5
			c-10.796-6.538-20.543-14.124-37-15"/>
		<path fill-rule="evenodd" clip-rule="evenodd" fill="#F2F1F3" d="M340.999,196.874c-9.313-10.354-18.836-20.498-28-31
			c8.146-8.853,15.338-18.662,26-25c5.917,6.75,12.25,13.084,19,19c1.035,2.632,3.965,3.368,5,6c5.916,6.751,12.25,13.084,19,19
			c1.382,2.951,4.618,4.048,6,7c5.917,6.75,12.25,13.083,19,19c1.578,2.422,3.578,4.422,6,6c-1.175,2.651,1.917,5.888,0,6
			c-19.785-0.881-45.102,3.768-54-8C353.416,208.456,347.416,202.456,340.999,196.874z"/>
		<path fill-rule="evenodd" clip-rule="evenodd" fill="#B6B3B1" d="M358.999,214.874c-6.417-5.583-12.417-11.583-18-18"/>
		<path fill-rule="evenodd" clip-rule="evenodd" fill="#F2F1F3" d="M757.997,63.874c18.484-1.485,30.153,3.846,39.999,11
			c21.321,30.013,33.386,69.281,47.001,107c17.563-36.103,27.257-80.076,50.999-110c9.189-7.143,24.635-8.032,40-9
			c2.004,2.123-1.42,4.456-2,7c5.962-2.371,10.045-6.622,19-6c39.063-1.151,78.666-1,117.999-1c1.029,8.335,2.325,22.659,0,30
			c-35.334,0.666-74.584,0-107.999,0c0,11.667,0,23.333,0,35c33.547,0.299,70.332,0.334,104.999,1c0,9,0,18,0,27
			c-34.921,1.152-72.243,0.94-104.999,1c0,12.333,0,24.667,0,37c35.674,2.327,75.661,0.338,112.999,1c0,9.333,0,18.667,0,28
			c-51,0-101.999,0-152.999,0c0-32.667,0-65.333,0-98c0-5.65-0.699-15.542,0-24c0-1.667,0-3.333,0-5
			c-19.54,41.793-38.562,84.103-57,127c-17.017,1.351-29.502-1.831-38.999-8c-15.757-19.399-28.314-50.489-40.001-76
			c-9.781-21.354-18.491-43.206-27.999-64c-2.333,47.333-0.333,98.999-1,148c-13.333,0-26.667,0-40,0c0-19.333,0-38.667,0-58
			c-10.168,32.083-30.746,55.714-70,58c-31.784,1.851-67.522,0.081-103,0c0-43,0-86,0-129c-11.21,20.187-25.192,41.731-39,66
			c-13.138,23.091-24.153,58.116-55,63c-10.819,0.458-18.496-1.078-24-1c7.986-16.013,17.449-30.551,26-46
			c-18.634-30.366-42.587-55.412-62-85c11.955-5.711,19.426-15.906,34-19c16.289,22.378,31.217,46.117,49,67
			c16.385-22.949,26.135-52.531,46-72c10.736-3.264,24.709-3.291,39-3c4.996-0.817,1.547,2.129,1,4c7.823-5.51,22.911-3.756,36-4
			c18.332,0,36.666,0,54.999,0c38.446,2.221,56.716,24.618,66,56c2.331-16.669,0.335-37.665,1-56 M584.997,194.874
			c25.547-0.787,55.4,2.733,74-5c24.843-12.688,27.327-69.316,7-89c-16.339-13.66-52.279-7.719-81-9"/>
		<path fill-rule="evenodd" clip-rule="evenodd" fill="#231F20" d="M142,10.875c10,0,20,0,30,0c22.697,2.636,43.888,6.779,60,16
			c9.495-3.838,19.177-7.489,32-8c57.333,0,114.667,0,172,0c1.333,0,2.667,0,4,0c10.827,10.173,17.615,24.385,27,36
			c13.234-21.099,34.366-34.301,67-36c32.667,0,65.332,0,98,0c41.666,0,83.332,0,124.998,0c26.118,1.882,48.129,7.871,65.001,19
			c4.869,4.463,9.146,9.52,13.999,14c1.896,3.772,4.561,6.773,7,10c3.228-3.106,5.624-7.043,8-11c4.581-4.753,9.248-9.419,14.001-14
			c12.916-9.416,29.093-15.573,48.999-18c3,0,6,0,9,0c66.333,0,132.666,0,198.999,0c0,162.332,0,324.667,0,486.998
			c-41,0-82,0-122.999,0c-23.07-1.264-37.967-10.7-52-21c-3.581-4.418-7.582-8.418-12-11.999c-1.577-3.09-3.446-5.888-6-8.001
			c0.367-1.7-0.78-1.886-2-1.999c-17.334,0-34.666,0-51.999,0c-2.616-0.282-4.302,0.364-4.001,3
			c-2.554,2.112-4.423,4.91-5.999,7.999c-3.753,2.915-7.087,6.249-10,10.001c-15.151,11.848-34.753,19.248-59,21.999
			c-3.334,0-6.667,0-10,0c-88.333,0.667-179.333-1.333-265.999,1c-23.647,1.686-46.005,4.662-69,7.001c-8.667,0-17.333,0-26,0
			c-43.772-4.228-81.404-14.597-106.999-37.001c-23.179,16.487-53.166,26.167-90,29c-5.333,0-10.667,0-16,0
			c-58.667,0-117.333,0-176,0c0-78.999,0-157.998,0-236.999c2.149-12.518,3.96-25.373,9-35c-9.976-25.414-34.875-41.05-32-76
			c4.493-9.508,15.775-12.225,27-15c-2.337-7.663-4.278-15.722-6-24c0-6.667,0-13.333,0-20c2.964-19.035,9.926-34.074,19-47
			c5.039-4.961,9.594-10.407,15-15C86.815,22.357,111.73,13.938,142,10.875z M595.998,63.874c-13.09,0.244-28.178-1.51-36,4
			c0.547-1.871,3.996-4.817-1-4c-14.291-0.291-28.263-0.263-39,3c-19.865,19.468-29.615,49.051-46,72
			c-17.783-20.883-32.711-44.622-49-67c-3.053-13.296-22.829-31.08-34-33c-8.481-1.458-21.617,1.376-30,5
			c-32.146,13.895-63.153,47.883-83,70c-0.916-16.201,0-32.667,0-49c-1.513-1.22-7.162-0.876-9-1c-16.694,0.972-25.993,9.34-29,24
			c-23.725-40.88-147.772-50.253-155,12c-1.658,1.725-1.658,10.275,0,12c3.681,32.052,37.801,38.15,68,43
			c18.084,2.905,42.09,0.337,49,18c-3.968,31.335-57.305,25.948-77,15c-7.433-4.132-12.225-11.335-19-13
			c-12.204-2.997-25.191,3.565-34,6c15.229,26.771,39.743,44.256,82,44c2.487,0.701,8.692-0.123,11,0
			c34.652,0.319,59.269-9.397,72-31c1.321,0.012,0.914,1.753,2,2c0,9,0,17.999,0,27c13,0,26,0,39,0c0.582-3.556,0-15,1-15
			c8.921-14.413,23.213-23.454,30-40c1.479-0.521,2.52-1.48,4-2c9.164,10.502,18.687,20.646,28,31c5.583,6.417,11.582,12.417,18,18
			c8.898,11.768,34.215,7.119,54,8c2.38,12.62,7.993,22.007,9,36c-2.435,3.796-6.676,10.339-11,9c0-2.667,0-5.333,0-8
			c-6.899-7.149-18.193-3.488-19,5c-0.729,7.668,5.276,8.126,9,14c-7.357,3.043-12.944-11.253-18-17c0.012-1.321,1.753-0.914,2-2
			c-3.268-3.065-4.788-7.879-11-8c1.044,8.382,12.387,14.878,16,24c-5.258-3.075-9.265-7.402-13-12c1.24,4.427,4.081,7.252,3,14
			c8.024,5.976,14.204,13.796,25,17c1.971,9.361,10.975,11.692,14,20c-0.523,12.107-5.585,22.329,2,30
			c9.453,2.547,25.396-1.395,32,4c1.946-4.871,10.085-2.489,15-2c1.042-2.833,1.042-4.167,0-7c-12.145-7.562-24.214,2.949-34-6
			c0.553-1.781,0.514-4.153,2-5c14.583,1.514,26.128,2.453,37,9c0.576-2.091,2.479-2.854,2-6c-9.57-6.096-21.231-10.102-31-16
			c6.039-8.728-3.198-15.845-6-22c1.987-0.013,1.271-2.728,4-2c-4.1-6.9-7.458-14.542-12-21c15.627-0.851,6.07-23.217,12-32
			c-1.72-5.296-10.876-8.437-8-15c5.349-0.651,12.358-1,17-1c30.847-4.884,41.861-39.909,55-63c13.807-24.268,27.789-45.813,39-66
			c0,43,0,86,0,129c35.238-0.266,71.269,2.444,103,0c39.204-3.02,59.832-25.917,70-58c0,19.333,0,38.667,0,58
			c13.333,0,26.667,0,40,0c0.667-49-1.333-100.666,1-148c9.508,20.794,18.218,42.646,27.999,64
			c11.687,25.511,24.244,56.601,40.001,76c9.497,6.169,21.982,9.351,38.999,8c18.438-42.896,37.46-85.207,57-127
			c0,1.667,0,3.333,0,5c0,8,0,16,0,24c0,32.667,0,65.333,0,98c51,0,101.999,0,152.999,0c1.665-7.013,1.665-20.987,0-28
			c-37.338-0.662-77.325,1.326-112.999-1c0-12.333,0-24.667,0-37c34.667-0.667,71.999,1.333,104.999-1c0-9,0-18,0-27
			c-33.075-1.141-70.332-0.334-104.999-1c0-11.667,0-23.333,0-35c36,0,71.999,0,107.999,0c1.646-7.802,1.646-22.197,0-30
			c-39,0.667-80.666-1.333-117.999,1c-8.955-0.622-13.038,3.629-19,6c0.58-2.544,4.004-4.877,2-7c-15.365,0.968-30.811,1.857-40,9
			c-23.742,29.924-33.436,73.897-50.999,110c-13.615-37.719-25.68-76.987-47.001-107c-9.846-7.154-21.515-12.485-39.999-11
			c-11.095-0.73-29.03,0-40,0c-0.665,18.335,1.331,39.331-1,56c-9.284-31.382-27.554-53.779-66-56 M229.999,230.874
			c-44.285-2.125-106.375-7.321-131,12c-3.95,4.716-6.574,10.759-10,16c-6.569,61.431-1.311,134.688-3,200.999
			c48.417-1.547,100.908,2.518,145-1c46.607-3.717,74.322-23.223,93-53.999c21.44,82.803,206.723,83.019,235.999,7c0,16,0,32,0,48
			c67.533-4.353,158.892,10.008,206.999-9.999c0.363,3.767-8.092,8.016-3,9.999c47.427,3.997,72.274-9.302,80-42.999
			c39.334,0,78.667,0,118,0c6.158,14.817,8.395,27.328,21,34.999c22.031,13.409,58.776,5.784,92.999,8c0-76.665,0-153.333,0-229.999
			c-18.999,0-38,0-56.999,0c0,58,0,116,0,173.999c-29.612-56.721-56.454-116.211-85-173.999c-20.333,0-40.666,0-61,0
			c-26.517,50.149-49.37,103.963-76,154c-3.329-29.004-23.244-41.422-48-49c39.499-3.192,47.291-62.593,24.001-87
			c-16.969-17.782-56.73-18-92-18c-37.997,0-76.3-2.512-99,11c-6.256,4.084-12.244,13.745-15.999,17c0-9,0-18,0-27
			c-72.658,1.309-50.722,87.187-57,148c-0.44,4.264-1.387,9.987-3,14c-14.219,35.364-95.719,38.547-120,8
			c-16.242-20.434-7.815-63.82-10-99c-1.303-20.981-8.355-39.674-16-52c-5.791-5.209-11.252-10.747-17.999-15
			c-6.69-2.644-14.754-3.914-23-5c0,15.667,0,31.333,0,47C301.285,250.832,272.469,232.911,229.999,230.874z"/>
		<path fill-rule="evenodd" clip-rule="evenodd" fill="#F2F1F3" d="M277.999,222.874c-13,0-26,0-39,0c0-9,0-18,0-27
			c11.748,4.809,24.642,13.051,39,12C277.999,212.874,277.999,217.874,277.999,222.874z"/>
		<path fill-rule="evenodd" clip-rule="evenodd" fill="#B6B3B1" d="M387.998,191.874c6.751,5.916,13.084,12.25,19,19"/>
		<path fill-rule="evenodd" clip-rule="evenodd" fill="#B6B3B1" d="M362.999,165.874c6.75,5.917,13.084,12.25,19,19"/>
		<path fill-rule="evenodd" clip-rule="evenodd" fill="#B6B3B1" d="M338.999,140.874c6.75,5.916,13.084,12.249,19,19"/>
		<path fill-rule="evenodd" clip-rule="evenodd" fill="#F2F1F3" d="M870.996,465.873c-0.301-2.636,1.385-3.282,4.001-3
			c17.333,0,34.665,0,51.999,0c1.22,0.113,2.367,0.299,2,1.999C912.204,463.792,886.152,461.996,870.996,465.873z"/>
		<path fill-rule="evenodd" clip-rule="evenodd" fill="#FFFFFF" d="M423.999,514.872c-138.333,0-276.666,0-414.999,0
			c0-167.998,0-336,0-503.998c44.333,0,88.667,0,133,0c-30.269,3.063-55.184,11.482-74,26c-6.352,3.648-11.1,8.899-15,15
			c-9.074,12.925-16.035,27.964-19,47c-1.541,0.5-1.754,16.206,0,20c1.721,8.278,3.662,16.337,6,24
			c-11.224,2.775-22.507,5.492-27,15c-2.875,34.95,22.024,50.586,32,76c-5.04,9.627-6.851,22.482-9,35
			c-2.294,32.756-0.361,79.702-1,118c0.667,39.333-1.333,81.332,1,118.999c56.667,2.333,117.666,0.333,176,1
			c4.512-0.515,16.421,1.125,16-1c36.834-2.833,66.821-12.513,90-29c25.595,22.404,63.227,32.773,106.999,37.001
			C424.148,513.688,424.055,514.262,423.999,514.872z"/>
		<path fill-rule="evenodd" clip-rule="evenodd" fill="#231F20" d="M430.998,223.874c5.288,11.253-2.253,20.836-8,27
			c-1.717-12.288-3.607-29.72-10-34c-2.423-1.578-4.422-3.578-6-6c-5.916-6.75-12.249-13.084-19-19c-1.381-2.952-4.618-4.048-6-7
			c-5.916-6.751-12.25-13.084-19-19c-1.035-2.632-3.965-3.368-5-6c-5.916-6.75-12.25-13.083-19-19
			c16.722-17.279,33.059-34.941,52-50c19.412,29.588,43.366,54.634,62,85c-8.551,15.449-18.013,29.987-26,46"/>
		<path fill-rule="evenodd" clip-rule="evenodd" fill="#FFFFFF" d="M946.996,484.872c14.033,10.3,28.93,19.736,52,21
			c39,2.333,82.333,0.334,122.999,1c0,1.334,0,2.667,0,4c0.287,6.93-12.175,4-18,4c-214.509,0-436.643,0-651.997,0
			c0.184-0.85-0.39-0.942-1-0.999c22.994-2.339,45.352-5.315,69-7.001c88.666,0,177.334,0,265.999,0c2.688-0.369,12.173,0.917,10-1
			c24.247-2.751,43.849-10.151,59-21.999c3.751-2.915,7.085-6.249,10-10.001c1.576-3.089,3.445-5.887,5.999-7.999
			c15.156-3.877,41.208-2.081,58-1.001c2.554,2.113,4.423,4.911,6,8.001C938.578,477.29,942.578,481.291,946.996,484.872z"/>
		<path fill-rule="evenodd" clip-rule="evenodd" fill="#FFFFFF" d="M171.999,10.875c312.996,0,626.008,0,938.996,0
			c3.565,1.101,12.045-2.712,11,3c0,1.333,0,2.667,0,4c-66.333,0-132.666,0-198.999,0c-2.408,0.325-11.43-0.853-9,1
			c-19.906,2.427-36.083,8.584-48.999,18c-5.866,3.467-10.534,8.134-14.001,14c-2.376,3.958-4.772,7.895-8,11
			c-2.439-3.227-5.104-6.228-7-10c-3.729-5.604-7.959-10.708-13.999-14c-16.872-11.129-38.883-17.118-65.001-19
			c-39.666-2.333-83.664-0.334-124.998-1c-30.323,0.644-70.686-1.296-98,1c-32.634,1.699-53.766,14.9-67,36
			c-9.385-11.614-16.173-25.826-27-36c-1.333,0-2.667,0-4,0c-55-1.667-116.998-1.667-172,0c-12.823,0.51-22.505,4.161-32,8
			C215.887,17.653,194.696,13.511,171.999,10.875z"/>
	</g>
</g>
<g id="Calque_2">
</g>
</svg>
